<svg width="20" height="20" viewBox="0 0 24 24" fill="none" xmlns="http://www.w3.org/2000/svg">
  <path d="M3 3L21 21" stroke="#0D0D0D" stroke-width="1.8" stroke-linecap="round"/>
  <path fill-rule="evenodd" clip-rule="evenodd" d="M8.359 6.943A10.9 10.9 0 0 1 12 6.3c4.711 0 8.103 3.339 9.498 5.7-.475.8-1.217 1.892-2.216 2.931l-1.43-1.43c.62-.678 1.107-1.365 1.448-1.934-.95-1.366-3.573-4.067-7.3-4.067-.9 0-1.74.158-2.52.428L8.36 6.943Zm8.372 11.2A10.866 10.866 0 0 1 12 19.7c-4.712 0-8.103-3.339-9.5-5.7.754-1.272 2.391-3.59 4.83-4.88l1.028 1.029c-1.808.94-3.09 2.594-3.758 3.718.95 1.366 3.573 4.067 7.4 4.067 1.1 0 2.117-.236 3.017-.63l1.714 1.714Z" fill="#0D0D0D"/>
</svg>
