<svg viewBox="0 0 20 20" xmlns="http://www.w3.org/2000/svg">
  <path d="M16.585 10a6.585 6.585 0 1 0-13.17 0 6.585 6.585 0 0 0 13.17 0m1.33 0a7.915 7.915 0 1 1-15.83 0 7.915 7.915 0 0 1 15.83 0"/>
  <path d="M9.817 11.596c-.459 0-.729-.313-.729-.756v-.076c0-.637.33-1.058.967-1.431.697-.416.908-.686.908-1.183 0-.53-.411-.897-1.005-.897-.53 0-.886.26-1.059.74-.135.346-.378.497-.708.497-.426 0-.691-.264-.691-.675 0-.232.054-.438.162-.643C8.008 6.46 8.872 6 10.033 6c1.535 0 2.566.843 2.566 2.101 0 .816-.394 1.372-1.156 1.82-.718.417-.88.649-.95 1.103-.082.362-.292.572-.676.572M9.828 14c-.486 0-.88-.373-.88-.848s.394-.848.88-.848c.492 0 .886.373.886.848S10.32 14 9.828 14"/>
</svg>
