<svg width="600" height="571" viewBox="-45 -25 600 571" fill="none" preserveAspectRatio="xMidYMid meet" xmlns="http://www.w3.org/2000/svg">
  <rect x="1" y="1" width="507" height="474" rx="6" fill="#FFFFFF" stroke="#D7DBDE" filter="url(#windowShadow)"/>
  <circle cx="18" cy="19" r="6" fill="#E96B5E"/>
  <circle cx="36" cy="19" r="6" fill="#E6B84B"/>
  <circle cx="54" cy="19" r="6" fill="#62C554"/>
  <text fill="#1F2328" xml:space="preserve" style="white-space: pre" font-family="Arial, sans-serif" font-size="12" font-weight="700" letter-spacing="0" text-anchor="middle">
    <tspan x="254.5" y="23.2">Parse</tspan>
  </text>

  <g transform="translate(3 3) scale(0.836)">
    <!-- Source document panel (left) -->
    <rect x="24" y="48" width="270" height="500" rx="8" fill="#FAFBFC" stroke="#E2E6EA"/>
    <text fill="#37424C" font-family="Arial, sans-serif" font-size="13" font-weight="600"><tspan x="40" y="78">Source Document</tspan></text>
    <text fill="#A0ABB5" font-family="Arial, sans-serif" font-size="10"><tspan x="188" y="78">machine-learning.pdf</tspan></text>

    <!-- Simulated page content -->
    <rect x="36" y="92" width="246" height="140" rx="6" fill="#FFFFFF" stroke="#E8ECF0"/>
    <text fill="#32414E" font-family="Arial, sans-serif" font-size="12" font-weight="600"><tspan x="48" y="114">Chapter 3: Feature Engineering</tspan></text>
    <rect x="48" y="124" width="210" height="4" rx="2" fill="#DEE4EA"/>
    <rect x="48" y="134" width="190" height="4" rx="2" fill="#DEE4EA"/>
    <rect x="48" y="144" width="218" height="4" rx="2" fill="#DEE4EA"/>
    <rect x="48" y="154" width="170" height="4" rx="2" fill="#DEE4EA"/>
    <rect x="48" y="170" width="200" height="4" rx="2" fill="#DEE4EA"/>
    <rect x="48" y="180" width="220" height="4" rx="2" fill="#DEE4EA"/>
    <rect x="48" y="190" width="160" height="4" rx="2" fill="#DEE4EA"/>
    <rect x="48" y="206" width="195" height="4" rx="2" fill="#DEE4EA"/>
    <rect x="48" y="216" width="210" height="4" rx="2" fill="#DEE4EA"/>

    <!-- Highlight blocks showing detected structure -->
    <rect x="36" y="244" width="246" height="56" rx="6" fill="#EEF5FB" stroke="#D7E5F2"/>
    <text fill="#3A6B8C" font-family="Arial, sans-serif" font-size="10" font-weight="600"><tspan x="48" y="264">§3.1 Detected: heading</tspan></text>
    <rect x="48" y="274" width="180" height="4" rx="2" fill="#B8D4EC"/>
    <rect x="48" y="282" width="150" height="4" rx="2" fill="#B8D4EC"/>

    <rect x="36" y="308" width="246" height="56" rx="6" fill="#EEF8F2" stroke="#D6EBDC"/>
    <text fill="#3A6B4C" font-family="Arial, sans-serif" font-size="10" font-weight="600"><tspan x="48" y="328">§3.2 Detected: body paragraph</tspan></text>
    <rect x="48" y="338" width="200" height="4" rx="2" fill="#A8DABB"/>
    <rect x="48" y="346" width="170" height="4" rx="2" fill="#A8DABB"/>

    <rect x="36" y="372" width="246" height="56" rx="6" fill="#FFF7EE" stroke="#F0DFCB"/>
    <text fill="#7A6240" font-family="Arial, sans-serif" font-size="10" font-weight="600"><tspan x="48" y="392">§3.3 Detected: table</tspan></text>
    <rect x="48" y="402" width="60" height="4" rx="2" fill="#E4C9A0"/>
    <rect x="116" y="402" width="60" height="4" rx="2" fill="#E4C9A0"/>
    <rect x="48" y="410" width="60" height="4" rx="2" fill="#E4C9A0"/>
    <rect x="116" y="410" width="60" height="4" rx="2" fill="#E4C9A0"/>

    <text fill="#A0ABB5" font-family="Arial, sans-serif" font-size="10"><tspan x="40" y="456">pages 82–94 · 3 sections detected</tspan></text>

    <!-- Arrow from left to right -->
    <g transform="translate(305, 290)">
      <line x1="0" y1="0" x2="24" y2="0" stroke="#A7B5C2" stroke-width="2" stroke-linecap="round"/>
      <polyline points="18,-5 24,0 18,5" fill="none" stroke="#A7B5C2" stroke-width="2" stroke-linecap="round" stroke-linejoin="round"/>
    </g>

    <!-- Chunks panel (right) -->
    <rect x="340" y="48" width="256" height="500" rx="8" fill="#FAFBFC" stroke="#E2E6EA"/>
    <text fill="#37424C" font-family="Arial, sans-serif" font-size="13" font-weight="600"><tspan x="356" y="78">Extracted Chunks</tspan></text>
    <text fill="#A0ABB5" font-family="Arial, sans-serif" font-size="10"><tspan x="500" y="78">12 total</tspan></text>

    <!-- Chunk cards -->
    <rect x="352" y="92" width="232" height="68" rx="6" fill="#EEF5FB" stroke="#D7E5F2"/>
    <text fill="#344B5F" font-family="Arial, sans-serif" font-size="11" font-weight="600"><tspan x="364" y="112">Chunk #1</tspan></text>
    <text fill="#6D7F8D" font-family="Arial, sans-serif" font-size="10"><tspan x="364" y="128">Ch.3 §3.1 · pp.82-83</tspan></text>
    <text fill="#8FA4B8" font-family="Arial, sans-serif" font-size="9"><tspan x="364" y="148">Feature selection methods and…</tspan></text>

    <rect x="352" y="168" width="232" height="68" rx="6" fill="#EEF8F2" stroke="#D6EBDC"/>
    <text fill="#355847" font-family="Arial, sans-serif" font-size="11" font-weight="600"><tspan x="364" y="188">Chunk #2</tspan></text>
    <text fill="#6B8577" font-family="Arial, sans-serif" font-size="10"><tspan x="364" y="204">Ch.3 §3.2 · pp.84-86</tspan></text>
    <text fill="#8FA4B8" font-family="Arial, sans-serif" font-size="9"><tspan x="364" y="224">Normalization techniques for…</tspan></text>

    <rect x="352" y="244" width="232" height="68" rx="6" fill="#FFF7EE" stroke="#F0DFCB"/>
    <text fill="#66503A" font-family="Arial, sans-serif" font-size="11" font-weight="600"><tspan x="364" y="264">Chunk #3</tspan></text>
    <text fill="#8A725A" font-family="Arial, sans-serif" font-size="10"><tspan x="364" y="280">Ch.3 §3.2 · pp.86-88</tspan></text>
    <text fill="#8FA4B8" font-family="Arial, sans-serif" font-size="9"><tspan x="364" y="300">Principal component analysis…</tspan></text>

    <rect x="352" y="320" width="232" height="68" rx="6" fill="#F4F1FC" stroke="#E2DAF2"/>
    <text fill="#4A4366" font-family="Arial, sans-serif" font-size="11" font-weight="600"><tspan x="364" y="340">Chunk #4</tspan></text>
    <text fill="#746D92" font-family="Arial, sans-serif" font-size="10"><tspan x="364" y="356">Ch.3 §3.3 · pp.89-91</tspan></text>
    <text fill="#8FA4B8" font-family="Arial, sans-serif" font-size="9"><tspan x="364" y="376">Comparison table of feature…</tspan></text>

    <!-- More indicator -->
    <text fill="#A0ABB5" font-family="Arial, sans-serif" font-size="10" text-anchor="middle"><tspan x="468" y="416">· · ·</tspan></text>
    <text fill="#A0ABB5" font-family="Arial, sans-serif" font-size="10" text-anchor="middle"><tspan x="468" y="434">8 more chunks</tspan></text>

    <!-- Metadata footer -->
    <rect x="352" y="450" width="232" height="36" rx="6" fill="#F4F6F8" stroke="#E2E6EA"/>
    <text fill="#5A6772" font-family="Arial, sans-serif" font-size="10"><tspan x="364" y="472">metadata: title · author · page range</tspan></text>
  </g>

  <defs>
    <filter id="windowShadow" x="-120" y="-120" width="920" height="920" filterUnits="userSpaceOnUse" color-interpolation-filters="sRGB">
      <feDropShadow dx="0" dy="16" stdDeviation="18" flood-color="#000000" flood-opacity="0.18"/>
    </filter>
  </defs>
</svg>
