<svg width="600" height="571" viewBox="-45 -25 600 571" fill="none" preserveAspectRatio="xMidYMid meet" xmlns="http://www.w3.org/2000/svg">
  <rect x="1" y="1" width="507" height="474" rx="6" fill="#FFFFFF" stroke="#D7DBDE" filter="url(#windowShadow)"/>
  <circle cx="18" cy="19" r="6" fill="#E96B5E"/>
  <circle cx="36" cy="19" r="6" fill="#E6B84B"/>
  <circle cx="54" cy="19" r="6" fill="#62C554"/>
  <text fill="#1F2328" xml:space="preserve" style="white-space: pre" font-family="Arial, sans-serif" font-size="12" font-weight="700" letter-spacing="0" text-anchor="middle">
    <tspan x="254.5" y="23.2">Upload</tspan>
  </text>

  <g transform="translate(3 3) scale(0.836)">
    <!-- Sidebar -->
    <rect x="24" y="48" width="160" height="500" rx="8" fill="#F4F6F8" stroke="#E2E6EA"/>
    <text fill="#37424C" font-family="Arial, sans-serif" font-size="13" font-weight="600"><tspan x="40" y="78">My Library</tspan></text>
    <rect x="36" y="92" width="132" height="32" rx="6" fill="#FFFFFF" stroke="#DCE6EE"/>
    <text fill="#5A6772" font-family="Arial, sans-serif" font-size="11"><tspan x="48" y="113">computer-systems.pdf</tspan></text>
    <rect x="36" y="132" width="132" height="32" rx="6" fill="#FFFFFF" stroke="#DCE6EE"/>
    <text fill="#5A6772" font-family="Arial, sans-serif" font-size="11"><tspan x="48" y="153">ml-textbook.epub</tspan></text>
    <rect x="36" y="172" width="132" height="32" rx="6" fill="#FFFFFF" stroke="#DCE6EE"/>
    <text fill="#5A6772" font-family="Arial, sans-serif" font-size="11"><tspan x="48" y="193">database-intro.txt</tspan></text>
    <!-- Status badges -->
    <circle cx="156" cy="108" r="4" fill="#62C554"/>
    <circle cx="156" cy="148" r="4" fill="#E6B84B"/>
    <circle cx="156" cy="188" r="4" fill="#3A8AC2"/>

    <text fill="#A0ABB5" font-family="Arial, sans-serif" font-size="10"><tspan x="40" y="230">3 books · 1 ready</tspan></text>

    <!-- Main content area -->
    <rect x="200" y="48" width="396" height="500" rx="8" fill="#FAFBFC" stroke="#E2E6EA"/>

    <!-- Upload drop zone -->
    <rect x="228" y="80" width="340" height="200" rx="12" fill="#F7FAFD" stroke="#BDD0E6" stroke-width="1.5" stroke-dasharray="8 4"/>

    <!-- Upload arrow icon -->
    <g transform="translate(398, 148)">
      <polyline points="-16,8 0,-8 16,8" fill="none" stroke="#7BA7CF" stroke-width="2.5" stroke-linecap="round" stroke-linejoin="round"/>
      <line x1="0" y1="-6" x2="0" y2="24" stroke="#7BA7CF" stroke-width="2.5" stroke-linecap="round"/>
      <path d="M-24,28 L-24,34 Q-24,38 -20,38 L20,38 Q24,38 24,34 L24,28" fill="none" stroke="#7BA7CF" stroke-width="2" stroke-linecap="round"/>
    </g>

    <text fill="#4A6580" font-family="Arial, sans-serif" font-size="15" font-weight="600" text-anchor="middle"><tspan x="398" y="210">Drop your file here</tspan></text>
    <text fill="#8FA4B8" font-family="Arial, sans-serif" font-size="11" text-anchor="middle"><tspan x="398" y="230">or click to browse</tspan></text>

    <!-- Format badges -->
    <rect x="316" y="248" width="44" height="22" rx="6" fill="#EEF5FB" stroke="#D7E5F2"/>
    <text fill="#3A6B8C" font-family="Arial, sans-serif" font-size="10" font-weight="600" text-anchor="middle"><tspan x="338" y="263">.pdf</tspan></text>
    <rect x="368" y="248" width="50" height="22" rx="6" fill="#EEF8F2" stroke="#D6EBDC"/>
    <text fill="#3A6B4C" font-family="Arial, sans-serif" font-size="10" font-weight="600" text-anchor="middle"><tspan x="393" y="263">.epub</tspan></text>
    <rect x="426" y="248" width="40" height="22" rx="6" fill="#FFF7EE" stroke="#F0DFCB"/>
    <text fill="#7A6240" font-family="Arial, sans-serif" font-size="10" font-weight="600" text-anchor="middle"><tspan x="446" y="263">.txt</tspan></text>

    <!-- Recent uploads section -->
    <text fill="#37424C" font-family="Arial, sans-serif" font-size="13" font-weight="600"><tspan x="228" y="310">Recent Uploads</tspan></text>

    <!-- File row 1 -->
    <rect x="228" y="322" width="340" height="44" rx="6" fill="#FFFFFF" stroke="#E8ECF0"/>
    <text fill="#37424C" font-family="Arial, sans-serif" font-size="12" font-weight="500"><tspan x="244" y="342">deep-learning-basics.pdf</tspan></text>
    <text fill="#8FA4B8" font-family="Arial, sans-serif" font-size="10"><tspan x="244" y="358">2.4 MB · just now</tspan></text>
    <rect x="496" y="334" width="56" height="20" rx="10" fill="#EEF5FB" stroke="#D7E5F2"/>
    <text fill="#3A6B8C" font-family="Arial, sans-serif" font-size="9" font-weight="600" text-anchor="middle"><tspan x="524" y="348">queued</tspan></text>

    <!-- File row 2 -->
    <rect x="228" y="374" width="340" height="44" rx="6" fill="#FFFFFF" stroke="#E8ECF0"/>
    <text fill="#37424C" font-family="Arial, sans-serif" font-size="12" font-weight="500"><tspan x="244" y="394">algorithms-design.epub</tspan></text>
    <text fill="#8FA4B8" font-family="Arial, sans-serif" font-size="10"><tspan x="244" y="410">5.1 MB · 2 min ago</tspan></text>
    <!-- Progress bar -->
    <rect x="460" y="390" width="92" height="6" rx="3" fill="#E8ECF0"/>
    <rect x="460" y="390" width="58" height="6" rx="3" fill="#3A8AC2"/>
    <text fill="#3A8AC2" font-family="Arial, sans-serif" font-size="9" font-weight="600" text-anchor="end"><tspan x="552" y="410">processing</tspan></text>

    <!-- File row 3 -->
    <rect x="228" y="426" width="340" height="44" rx="6" fill="#FFFFFF" stroke="#E8ECF0"/>
    <text fill="#37424C" font-family="Arial, sans-serif" font-size="12" font-weight="500"><tspan x="244" y="446">operating-systems.txt</tspan></text>
    <text fill="#8FA4B8" font-family="Arial, sans-serif" font-size="10"><tspan x="244" y="462">820 KB · 15 min ago</tspan></text>
    <rect x="496" y="438" width="56" height="20" rx="10" fill="#EEF8F2" stroke="#D6EBDC"/>
    <text fill="#3A6B4C" font-family="Arial, sans-serif" font-size="9" font-weight="600" text-anchor="middle"><tspan x="524" y="452">ready ✓</tspan></text>

    <!-- Bottom hint -->
    <text fill="#A0ABB5" font-family="Arial, sans-serif" font-size="10" text-anchor="middle"><tspan x="398" y="510">multipart/form-data · max 50 MB · field name: file</tspan></text>
  </g>

  <defs>
    <filter id="windowShadow" x="-120" y="-120" width="920" height="920" filterUnits="userSpaceOnUse" color-interpolation-filters="sRGB">
      <feDropShadow dx="0" dy="16" stdDeviation="18" flood-color="#000000" flood-opacity="0.18"/>
    </filter>
  </defs>
</svg>
