<svg xmlns="http://www.w3.org/2000/svg" width="300" height="100" viewBox="0 0 300 100" role="img" aria-labelledby="t d">
  <title id="t">Outline Navigation</title>
  <desc id="d">A chapter outline with one active node and direct jump path.</desc>
  <rect width="300" height="100" fill="transparent"/>
  <g fill="none" stroke="#6f7782" stroke-width="1.8" stroke-linecap="round" stroke-linejoin="round">
    <rect x="20" y="18" width="96" height="64" rx="5"/>
    <line x1="30" y1="32" x2="102" y2="32"/>
    <line x1="30" y1="44" x2="94" y2="44"/>
    <line x1="40" y1="56" x2="94" y2="56"/>
    <line x1="50" y1="68" x2="94" y2="68"/>

    <line x1="130" y1="50" x2="156" y2="50"/>
    <path d="M150 43l14 7-14 7" fill="#9aa3ad" stroke="none"/>

    <circle cx="190" cy="32" r="3" fill="#6f7782" stroke="none"/>
    <circle cx="190" cy="50" r="3" fill="#4c8ffb" stroke="none"/>
    <circle cx="190" cy="68" r="3" fill="#6f7782" stroke="none"/>
    <line x1="194" y1="32" x2="232" y2="32"/>
    <line x1="194" y1="50" x2="246" y2="50"/>
    <line x1="194" y1="68" x2="232" y2="68"/>
    <rect x="240" y="42" width="40" height="16" rx="8"/>
  </g>
</svg>
