<svg xmlns="http://www.w3.org/2000/svg" width="300" height="100" viewBox="0 0 300 100" role="img" aria-labelledby="t d">
  <title id="t">Reading Metrics</title>
  <desc id="d">Compact dashboard for pages words and reading time.</desc>
  <rect width="300" height="100" fill="transparent"/>
  <g fill="none" stroke="#6f7782" stroke-width="1.8" stroke-linecap="round" stroke-linejoin="round">
    <rect x="20" y="20" width="166" height="60" rx="6"/>
    <line x1="30" y1="34" x2="176" y2="34"/>
    <rect x="30" y="42" width="36" height="10" rx="3"/>
    <rect x="74" y="42" width="36" height="10" rx="3"/>
    <rect x="118" y="42" width="36" height="10" rx="3"/>

    <rect x="30" y="64" width="8" height="8" fill="#b6bdc7" stroke="none"/>
    <rect x="42" y="60" width="8" height="12" fill="#9fa8b3" stroke="none"/>
    <rect x="54" y="54" width="8" height="18" fill="#4c8ffb" stroke="none"/>
    <line x1="74" y1="68" x2="170" y2="68"/>

    <circle cx="236" cy="50" r="24"/>
    <path d="M236 50V36"/>
    <path d="M236 50l10 7"/>
    <path d="M236 26a24 24 0 0 1 19 10" stroke="#4c8ffb"/>
  </g>
</svg>
