<svg xmlns="http://www.w3.org/2000/svg" width="300" height="100" viewBox="0 0 300 100" role="img" aria-labelledby="t d">
  <title id="t">Smart Pairing</title>
  <desc id="d">Editor auto-completes paired markdown symbols while typing.</desc>
  <rect width="300" height="100" fill="transparent"/>
  <g fill="none" stroke="#6f7782" stroke-width="1.8" stroke-linecap="round" stroke-linejoin="round">
    <rect x="20" y="18" width="260" height="64" rx="6"/>
    <line x1="20" y1="30" x2="280" y2="30"/>
    <circle cx="30" cy="24" r="2" fill="#ff5f57" stroke="none"/>
    <circle cx="38" cy="24" r="2" fill="#febb2e" stroke="none"/>
    <circle cx="46" cy="24" r="2" fill="#28c840" stroke="none"/>

    <line x1="34" y1="44" x2="132" y2="44"/>
    <line x1="34" y1="56" x2="120" y2="56"/>
    <line x1="34" y1="68" x2="144" y2="68"/>

    <rect x="160" y="40" width="106" height="22" rx="4"/>
    <path d="M172 47h10M172 55h10"/>
    <path d="M190 47h12M190 55h12"/>
    <path d="M210 47h16M210 55h16"/>
    <line x1="238" y1="44" x2="238" y2="58" stroke="#4c8ffb"/>
  </g>
</svg>
