<svg xmlns="http://www.w3.org/2000/svg">
  <symbol id="chat-chevron-down" viewBox="0 0 20 20">
    <path d="M5.5 7.75L10 12.25L14.5 7.75" fill="none" stroke="currentColor" stroke-width="1.7" stroke-linecap="round" stroke-linejoin="round"/>
  </symbol>
  <symbol id="chat-sidebar-close-desktop" viewBox="0 0 20 20">
    <path fill="currentColor" d="M6.835 4c-.451.004-.82.012-1.137.038-.386.032-.659.085-.876.162l-.2.086c-.44.224-.807.564-1.063.982l-.103.184c-.126.247-.206.562-.248 1.076-.043.523-.043 1.19-.043 2.135v2.664c0 .944 0 1.612.043 2.135.042.515.122.829.248 1.076l.103.184c.256.418.624.758 1.063.982l.2.086c.217.077.49.13.876.162.316.026.685.034 1.136.038zm11.33 7.327c0 .922 0 1.654-.048 2.243-.043.522-.125.977-.305 1.395l-.082.177a4 4 0 0 1-1.473 1.593l-.276.155c-.465.237-.974.338-1.57.387-.59.048-1.322.048-2.244.048H7.833c-.922 0-1.654 0-2.243-.048-.522-.042-.977-.126-1.395-.305l-.176-.082a4 4 0 0 1-1.594-1.473l-.154-.275c-.238-.466-.34-.975-.388-1.572-.048-.589-.048-1.32-.048-2.243V8.663c0-.922 0-1.654.048-2.243.049-.597.15-1.106.388-1.571l.154-.276a4 4 0 0 1 1.594-1.472l.176-.083c.418-.18.873-.263 1.395-.305.589-.048 1.32-.048 2.243-.048h4.334c.922 0 1.654 0 2.243.048.597.049 1.106.15 1.571.388l.276.154a4 4 0 0 1 1.473 1.594l.082.176c.18.418.262.873.305 1.395.048.589.048 1.32.048 2.243zm-10 4.668h4.002c.944 0 1.612 0 2.135-.043.514-.042.829-.122 1.076-.248l.184-.103c.418-.256.758-.624.982-1.063l.086-.2c.077-.217.13-.49.162-.876.043-.523.043-1.19.043-2.135V8.663c0-.944 0-1.612-.043-2.135-.032-.386-.085-.659-.162-.876l-.086-.2a2.67 2.67 0 0 0-.982-1.063l-.184-.103c-.247-.126-.562-.206-1.076-.248-.523-.043-1.19-.043-2.135-.043H8.164L8.165 4z"/>
  </symbol>
  <symbol id="chat-sidebar-close-mobile" viewBox="0 0 20 20">
    <path fill="currentColor" d="M14.255 4.755a.7.7 0 0 1 .99.99L10.99 10l4.255 4.255.09.11a.7.7 0 0 1-.97.97l-.11-.09L10 10.99l-4.255 4.255a.7.7 0 0 1-.99-.99L9.01 10 4.755 5.745l-.09-.11a.7.7 0 0 1 .97-.97l.11.09L10 9.01z"/>
  </symbol>
  <symbol id="chat-profile" viewBox="0 0 20 20">
    <path d="M16.585 10a6.585 6.585 0 1 0-13.17 0 6.585 6.585 0 0 0 13.17 0m1.33 0a7.915 7.915 0 1 1-15.83 0 7.915 7.915 0 0 1 15.83 0"/>
    <path d="M9.817 11.596c-.459 0-.729-.313-.729-.756v-.076c0-.637.33-1.058.967-1.431.697-.416.908-.686.908-1.183 0-.53-.411-.897-1.005-.897-.53 0-.886.26-1.059.74-.135.346-.378.497-.708.497-.426 0-.691-.264-.691-.675 0-.232.054-.438.162-.643C8.008 6.46 8.872 6 10.033 6c1.535 0 2.566.843 2.566 2.101 0 .816-.394 1.372-1.156 1.82-.718.417-.88.649-.95 1.103-.082.362-.292.572-.676.572M9.828 14c-.486 0-.88-.373-.88-.848s.394-.848.88-.848c.492 0 .886.373.886.848S10.32 14 9.828 14"/>
  </symbol>
  <symbol id="chat-library" viewBox="0 0 20 20">
    <rect x="3.4" y="4.1" width="3.1" height="11.8" rx="0.85" fill="currentColor"/>
    <rect x="8.2" y="3.6" width="3.7" height="12.3" rx="0.9" fill="currentColor"/>
    <rect x="13.3" y="5.1" width="3.1" height="10.8" rx="0.85" fill="currentColor"/>
  </symbol>
  <symbol id="chat-attach" viewBox="0 0 20 20">
    <path d="M11.2 5.1L7 9.3C5.8 10.5 5.8 12.5 7 13.7C8.2 14.9 10.2 14.9 11.4 13.7L15.8 9.3C17.4 7.7 17.4 5.1 15.8 3.5C14.2 1.9 11.6 1.9 10 3.5L5.5 8C3.3 10.2 3.3 13.8 5.5 16C7.7 18.2 11.3 18.2 13.5 16L17.4 12.1" fill="none" stroke="currentColor" stroke-width="1.6" stroke-linecap="round" stroke-linejoin="round"/>
  </symbol>
  <symbol id="chat-new-chat" viewBox="0 0 20 20">
    <path d="M2.669 11.333V8.667c0-.922 0-1.655.048-2.244.048-.597.15-1.106.387-1.571l.155-.276a4 4 0 0 1 1.593-1.472l.177-.083c.418-.179.872-.263 1.395-.305.589-.048 1.32-.048 2.243-.048h.5a.665.665 0 0 1 0 1.33h-.5c-.944 0-1.613 0-2.135.043-.386.032-.66.085-.876.162l-.2.086a2.67 2.67 0 0 0-1.064.982l-.102.184c-.126.247-.206.562-.248 1.076-.043.523-.043 1.192-.043 2.136v2.666c0 .944 0 1.613.043 2.136.042.514.122.829.248 1.076l.102.184c.257.418.624.758 1.064.982l.2.086c.217.077.49.13.876.161.522.043 1.19.044 2.135.044h2.667c.944 0 1.612-.001 2.135-.044.514-.042.829-.121 1.076-.247l.184-.104c.418-.256.759-.623.983-1.062l.086-.2c.077-.217.13-.49.16-.876.043-.523.044-1.192.044-2.136v-.5a.665.665 0 0 1 1.33 0v.5c0 .922.001 1.655-.047 2.244-.043.522-.127.977-.306 1.395l-.083.176a4 4 0 0 1-1.471 1.593l-.276.154c-.466.238-.975.34-1.572.39-.59.047-1.321.047-2.243.047H8.667c-.923 0-1.654 0-2.243-.048-.523-.043-.977-.126-1.395-.305l-.177-.084a4 4 0 0 1-1.593-1.471l-.155-.276c-.237-.465-.339-.974-.387-1.57-.049-.59-.048-1.322-.048-2.245m10.796-8.22a2.43 2.43 0 0 1 3.255.167l.167.185c.727.892.727 2.18 0 3.071l-.168.185-5.046 5.048a4 4 0 0 1-1.945 1.072l-.317.058-1.817.26a.665.665 0 0 1-.752-.753l.26-1.816.058-.319a4 4 0 0 1 1.072-1.944L13.28 3.28zm2.314 1.108a1.103 1.103 0 0 0-1.476-.076l-.084.076-5.046 5.048a2.67 2.67 0 0 0-.716 1.296l-.04.212-.134.939.94-.134.211-.039a2.67 2.67 0 0 0 1.298-.716L15.78 5.78l.076-.084c.33-.404.33-.988 0-1.392z"/>
  </symbol>
  <symbol id="chat-search" viewBox="0 0 20 20">
    <path d="M14.086 8.75a5.335 5.335 0 1 0-10.67 0 5.335 5.335 0 0 0 10.67 0m1.33 0a6.64 6.64 0 0 1-1.512 4.225l.066.055 3 3 .086.104a.666.666 0 0 1-.922.922l-.104-.085-3-3-.055-.068a6.665 6.665 0 1 1 2.44-5.153"/>
  </symbol>
  <symbol id="chat-voice" viewBox="0 0 20 20">
    <path d="M7.167 15.416V4.583a.75.75 0 0 1 1.5 0v10.833a.75.75 0 0 1-1.5 0m4.166-2.5V7.083a.75.75 0 0 1 1.5 0v5.833a.75.75 0 0 1-1.5 0M3 11.25v-2.5a.75.75 0 0 1 1.5 0v2.5a.75.75 0 0 1-1.5 0m12.5 0v-2.5a.75.75 0 0 1 1.5 0v2.5a.75.75 0 0 1-1.5 0"/>
  </symbol>
  <symbol id="chat-send" viewBox="0 0 20 20">
    <path d="M9 16V6.414L5.707 9.707a1 1 0 1 1-1.414-1.414l5-5 .076-.068a1 1 0 0 1 1.338.068l5 5 .068.076a1 1 0 0 1-1.406 1.406l-.076-.068L11 6.414V16a1 1 0 1 1-2 0"/>
  </symbol>
  <symbol id="chat-close" viewBox="0 0 20 20">
    <path d="M5 5L15 15" fill="none" stroke="currentColor" stroke-width="1.8" stroke-linecap="round"/>
    <path d="M15 5L5 15" fill="none" stroke="currentColor" stroke-width="1.8" stroke-linecap="round"/>
  </symbol>
  <symbol id="chat-error-circle" viewBox="0 0 16 16">
    <path fill-rule="evenodd" clip-rule="evenodd" d="M8 14.667A6.667 6.667 0 1 0 8 1.333a6.667 6.667 0 0 0 0 13.334z" fill="#D00E17" stroke="#D00E17" stroke-width="1.5" stroke-linecap="round" stroke-linejoin="round"/>
    <path fill-rule="evenodd" clip-rule="evenodd" d="M8 4.583a.75.75 0 0 1 .75.75V8a.75.75 0 0 1-1.5 0V5.333a.75.75 0 0 1 .75-.75z" fill="#FFFFFF"/>
    <path d="M8.667 10.667a.667.667 0 1 1-1.334 0 .667.667 0 0 1 1.334 0z" fill="#FFFFFF"/>
  </symbol>
</svg>
