<svg xmlns="http://www.w3.org/2000/svg">
  <symbol id="chat-chevron-down" viewBox="0 0 20 20">
    <path d="M5.5 7.75L10 12.25L14.5 7.75" fill="none" stroke="currentColor" stroke-width="1.7" stroke-linecap="round" stroke-linejoin="round"/>
  </symbol>
  <symbol id="chat-profile" viewBox="0 0 20 20">
    <path d="M16.585 10a6.585 6.585 0 1 0-13.17 0 6.585 6.585 0 0 0 13.17 0m1.33 0a7.915 7.915 0 1 1-15.83 0 7.915 7.915 0 0 1 15.83 0"/>
    <path d="M9.817 11.596c-.459 0-.729-.313-.729-.756v-.076c0-.637.33-1.058.967-1.431.697-.416.908-.686.908-1.183 0-.53-.411-.897-1.005-.897-.53 0-.886.26-1.059.74-.135.346-.378.497-.708.497-.426 0-.691-.264-.691-.675 0-.232.054-.438.162-.643C8.008 6.46 8.872 6 10.033 6c1.535 0 2.566.843 2.566 2.101 0 .816-.394 1.372-1.156 1.82-.718.417-.88.649-.95 1.103-.082.362-.292.572-.676.572M9.828 14c-.486 0-.88-.373-.88-.848s.394-.848.88-.848c.492 0 .886.373.886.848S10.32 14 9.828 14"/>
  </symbol>
  <symbol id="chat-attach" viewBox="0 0 20 20">
    <path d="M11.2 5.1L7 9.3C5.8 10.5 5.8 12.5 7 13.7C8.2 14.9 10.2 14.9 11.4 13.7L15.8 9.3C17.4 7.7 17.4 5.1 15.8 3.5C14.2 1.9 11.6 1.9 10 3.5L5.5 8C3.3 10.2 3.3 13.8 5.5 16C7.7 18.2 11.3 18.2 13.5 16L17.4 12.1" fill="none" stroke="currentColor" stroke-width="1.6" stroke-linecap="round" stroke-linejoin="round"/>
  </symbol>
  <symbol id="chat-search" viewBox="0 0 20 20">
    <circle cx="8.6" cy="8.6" r="4.9" fill="none" stroke="currentColor" stroke-width="1.7"/>
    <path d="M12.2 12.2L16.2 16.2" fill="none" stroke="currentColor" stroke-width="1.7" stroke-linecap="round"/>
  </symbol>
  <symbol id="chat-study" viewBox="0 0 20 20">
    <path d="M3.5 5.3L10 2.6L16.5 5.3L10 8L3.5 5.3Z" fill="none" stroke="currentColor" stroke-width="1.5" stroke-linejoin="round"/>
    <path d="M5.5 6.9V11.5C5.5 12.3 7.6 13.3 10 13.3C12.4 13.3 14.5 12.3 14.5 11.5V6.9" fill="none" stroke="currentColor" stroke-width="1.5" stroke-linecap="round" stroke-linejoin="round"/>
    <path d="M10 8V17" fill="none" stroke="currentColor" stroke-width="1.5" stroke-linecap="round"/>
  </symbol>
  <symbol id="chat-quote" viewBox="0 0 20 20">
    <path d="M6.8 5.2C5.2 6.3 4.4 7.8 4.4 9.8C4.4 11.5 5.3 12.7 6.8 12.7C7.9 12.7 8.8 11.9 8.8 10.8C8.8 9.7 8 8.9 6.9 8.9C6.8 8.9 6.7 8.9 6.6 8.9C6.9 7.7 7.6 6.7 8.7 5.9L6.8 5.2Z" fill="currentColor"/>
    <path d="M13.8 5.2C12.2 6.3 11.4 7.8 11.4 9.8C11.4 11.5 12.3 12.7 13.8 12.7C14.9 12.7 15.8 11.9 15.8 10.8C15.8 9.7 15 8.9 13.9 8.9C13.8 8.9 13.7 8.9 13.6 8.9C13.9 7.7 14.6 6.7 15.7 5.9L13.8 5.2Z" fill="currentColor"/>
  </symbol>
  <symbol id="chat-voice" viewBox="0 0 20 20">
    <path d="M7.167 15.416V4.583a.75.75 0 0 1 1.5 0v10.833a.75.75 0 0 1-1.5 0m4.166-2.5V7.083a.75.75 0 0 1 1.5 0v5.833a.75.75 0 0 1-1.5 0M3 11.25v-2.5a.75.75 0 0 1 1.5 0v2.5a.75.75 0 0 1-1.5 0m12.5 0v-2.5a.75.75 0 0 1 1.5 0v2.5a.75.75 0 0 1-1.5 0"/>
  </symbol>
  <symbol id="chat-send" viewBox="0 0 20 20">
    <path d="M9 16V6.414L5.707 9.707a1 1 0 1 1-1.414-1.414l5-5 .076-.068a1 1 0 0 1 1.338.068l5 5 .068.076a1 1 0 0 1-1.406 1.406l-.076-.068L11 6.414V16a1 1 0 1 1-2 0"/>
  </symbol>
  <symbol id="chat-close" viewBox="0 0 20 20">
    <path d="M5 5L15 15" fill="none" stroke="currentColor" stroke-width="1.8" stroke-linecap="round"/>
    <path d="M15 5L5 15" fill="none" stroke="currentColor" stroke-width="1.8" stroke-linecap="round"/>
  </symbol>
  <symbol id="chat-error-circle" viewBox="0 0 16 16">
    <path fill-rule="evenodd" clip-rule="evenodd" d="M8 14.667A6.667 6.667 0 1 0 8 1.333a6.667 6.667 0 0 0 0 13.334z" fill="#D00E17" stroke="#D00E17" stroke-width="1.5" stroke-linecap="round" stroke-linejoin="round"/>
    <path fill-rule="evenodd" clip-rule="evenodd" d="M8 4.583a.75.75 0 0 1 .75.75V8a.75.75 0 0 1-1.5 0V5.333a.75.75 0 0 1 .75-.75z" fill="#FFFFFF"/>
    <path d="M8.667 10.667a.667.667 0 1 1-1.334 0 .667.667 0 0 1 1.334 0z" fill="#FFFFFF"/>
  </symbol>
</svg>
